{"title":"The Princess Bride 1987 1080p Bluray DTS x264-LoNeWoLf","uid":5957562,"size":8550606366,"categoryP":"video","categoryS":"hd___movies","magnet":"?xt=urn:btih:1e4fbf0d22fd3f270a8d78719d90d290683c5d02&amp;dn=The+Princess+Bride+1987+1080p+Bluray+DTS+x264-LoNeWoLf&amp;tr=udp%3A%2F%2Ftracker.openbittorrent.com%3A80&amp;tr=udp%3A%2F%2Fopen.demonii.com%3A1337&amp;tr=udp%3A%2F%2Ftracker.coppersurfer.tk%3A6969&amp;tr=udp%3A%2F%2Fexodus.desync.com%3A6969","seeders":15,"leechers":1,"uploader":"bobnjeff","files":1,"time":1289792316,"description":"The Princess Bride 1987\n\nEncoded  by Tequila-Bob a.k.a. bobnjeff a.k.a.LoNeWoLf\n\nSource - NTSC BluRay Disc\n &lt;a href=&quot;\nhttp://photobucket.com/ThePrincessBride_TequilaBob&quot; rel=&quot;nofollow&quot; target=&quot;_NEW&quot;&gt;\nhttp://photobucket.com/ThePrincessBride_TequilaBob&lt;/a&gt;\n\nRelease Date:25 September 1987 (USA)\n &lt;a href=&quot;\nhttp://www.imdb.com/title/tt0093779/&quot; rel=&quot;nofollow&quot; target=&quot;_NEW&quot;&gt;\nhttp://www.imdb.com/title/tt0093779/&lt;/a&gt;\n\nRated 'PG' for Adventure Violence, Brief Language, and Mild Sexual\n\nGenres:Adventure | Comedy | Family | Fantasy | Romance\n\n\nTaglines for\nThe Princess Bride (1987)\n\nScaling the Cliffs of Insanity, Battling Rodents of Unusual Size, Facing torture in the Pit of Despair. - True love has never been a snap.\n--------------------------------------------------------------------------------\n\nIt's as real as the feelings you feel\n--------------------------------------------------------------------------------\n\nHeroes. Giants. Villains. Wizards. True Love. - Not just your basic, average, everyday, ordinary, run-of-the-mill, ho-hum fairy tale.\n--------------------------------------------------------------------------------\n\nHeroes, giants, villains, wizards, true love\n--------------------------------------------------------------------------------\n\nShe gets kidnapped. He gets killed. But it all ends up okay\n\n\nStoryline\nA kindly grandfather sits down with his grandson and reads him a bedtime story. The story is one that has been passed down through from father to son for generations. As the grandfather reads the story, the action comes alive. The story is a classic tale of love and adventure as the beautiful Buttercup is kidnapped and held against her will in order to marry the odious Prince Humperdinck, and Westley (her childhood beau, now returned as the Dread Pirate Roberts) attempts to save her. On the way he meets an accomplished swordsman and a huge, super strong giant, both of whom become his companions in his quest. They meet a few bad guys along the way to rescue Buttercup\n\nCast\nCast overview, first billed only: \n  Cary Elwes  ...  Westley  \n  Mandy Patinkin  ...  Inigo Montoya  \n  Chris Sarandon  ...  Prince Humperdinck  \n  Christopher Guest  ...  Count Tyrone Rugen  \n  Wallace Shawn  ...  Vizzini  \n  AndrÃƒÂ© the Giant  ...  Fezzik (as Andre the Giant)  \n  Fred Savage  ...  The Grandson  \n  Robin Wright  ...  Buttercup / The Princess Bride  \n  Peter Falk  ...  The Grandfather / Narrator  \n  Peter Cook  ...  The Impressive Clergyman  \n  Mel Smith  ...  The Albino  \n  Carol Kane  ...  Valerie  \n  Billy Crystal  ...  Miracle Max  \n  Anne Dyson  ...  The Queen  \n  Margery Mason  ...  The Ancient Booer\n\nFormat : Matroska \nFile size : 7.96 GiB \nDuration : 1h 38mn \nOverall bit rate : 11.6 Mbps \nEncoded date : UTC 2010-10-31 04:21:27 \nWriting application : mkvmerge v4.3.0 \nWriting library : libebml v1.0.0 + libmatroska v1.0.0 \n\nVideo \nID : 1 \nFormat : AVC \nFormat/Info : Advanced Video Codec \nFormat profile : &lt;a class=&quot;__cf_email__&quot; href=&quot;/cdn-cgi/l/email-protection&quot; data-cfemail=&quot;bdf5d4dad5fdf189938c&quot;&gt;[email&amp;#160;protected]&lt;/a&gt;&lt;script cf-hash='f9e31' type=&quot;text/javascript&quot;&gt;\n/* &lt;![CDATA[ */!function(){try{var t=&quot;currentScript&quot;in document?document.currentScript:function(){for(var t=document.getElementsByTagName(&quot;script&quot;),e=t.length;e--;)if(t[e].getAttribute(&quot;cf-hash&quot;))return t[e]}();if(t&amp;&amp;t.previousSibling){var e,r,n,i,c=t.previousSibling,a=c.getAttribute(&quot;data-cfemail&quot;);if(a){for(e=&quot;&quot;,r=parseInt(a.substr(0,2),16),n=2;a.length-n;n+=2)i=parseInt(a.substr(n,2),16)^r,e+=String.fromCharCode(i);e=document.createTextNode(e),c.parentNode.replaceChild(e,c)}}}catch(u){}}();/* ]]&gt; */&lt;/script&gt; \nFormat settings, CABAC : Yes \nFormat settings, ReFrames : 3 frames  \nCodec ID : V_MPEG4/ISO/AVC \nDuration : 1h 38mn \nBit rate mode : Variable \nBit rate : 10.1 Mbps \nMaximum bit rate : 40.0 Mbps \nWidth : 1 920 pixels \nHeight : 1 040 pixels \nDisplay aspect ratio : 16:9 \nFrame rate : 23.976 fps \nBit depth : 8 bits \nScan type : Progressive \nBits/(Pixel*Frame) : 0.210 \nStream size : 6.77 GiB (85%) \nLanguage : English \n\nAudio \nID : 2 \nFormat : DTS  \nDuration : 1h 38mn \nBit rate mode : Constant \nBit rate : 1 510 Kbps \nChannel(s) : 6 channels \nChannel positions : Front: L C R, Side: L R, LFE \nSampling rate : 48.0 KHz \nBit depth : 24 bits \nVideo delay : 10ms \nStream size : 1.04 GiB (13%) \nTitle : 3/2+1 \nLanguage : English \n\nText #1 \nLanguage : English \n\nText #2 \nLanguage : Spanish \n\nMenu 27 Chapters\n\n[img]http://torrent-stats.info/7871/7b341f6f.png[/img]\n\n &lt;a href=&quot;\nhttp://photobucket.com/ThePrincessBride_TequilaBob&quot; rel=&quot;nofollow&quot; target=&quot;_NEW&quot;&gt;\nhttp://photobucket.com/ThePrincessBride_TequilaBob&lt;/a&gt;","torrent":{"xt":"urn:btih:1e4fbf0d22fd3f270a8d78719d90d290683c5d02","amp;dn":"The+Princess+Bride+1987+1080p+Bluray+DTS+x264-LoNeWoLf","amp;tr":["udp%3A%2F%2Ftracker.openbittorrent.com%3A80","udp%3A%2F%2Fopen.demonii.com%3A1337","udp%3A%2F%2Ftracker.coppersurfer.tk%3A6969","udp%3A%2F%2Fexodus.desync.com%3A6969"],"infoHash":"1e4fbf0d22fd3f270a8d78719d90d290683c5d02","infoHashBuffer":{"type":"Buffer","data":[30,79,191,13,34,253,63,39,10,141,120,113,157,144,210,144,104,60,93,2]},"announce":[],"urlList":[]}}